<?xml version="1.0" encoding="UTF-8" standalone="no"?>
<!DOCTYPE svg PUBLIC "-//W3C//DTD SVG 1.1//EN" "http://www.w3.org/Graphics/SVG/1.1/DTD/svg11.dtd">
<svg width="100%" height="100%" viewBox="0 0 960 960" version="1.1" xmlns="http://www.w3.org/2000/svg" xmlns:xlink="http://www.w3.org/1999/xlink" xml:space="preserve" xmlns:serif="http://www.serif.com/" style="fill-rule:evenodd;clip-rule:evenodd;stroke-linecap:round;stroke-linejoin:round;stroke-miterlimit:1.5;">
    <g transform="matrix(4.15188,0,0,5.13166,-62.7873,-165.388)">
        <g transform="matrix(0.268612,0.00470613,-0.00419029,0.306352,8.34103,14.4561)">
            <path d="M365.781,194.36L369.665,460.117" style="fill:none;stroke:black;stroke-width:36.95px;"/>
        </g>
        <g transform="matrix(0.266634,0.00470613,-0.00415943,0.306352,49.1513,15.1087)">
            <path d="M365.781,194.36L369.665,460.117" style="fill:none;stroke:black;stroke-width:37.06px;"/>
        </g>
        <g transform="matrix(0.266665,0.00100884,-0.00100884,0.266665,8.2691,25.5413)">
            <path d="M441.15,269.484L441.655,405.047" style="fill:none;stroke:black;stroke-width:40px;"/>
        </g>
        <g transform="matrix(0.266665,0.00100884,-0.00100884,0.266665,47.8779,25.7588)">
            <path d="M441.15,269.484L441.655,405.047" style="fill:none;stroke:black;stroke-width:40px;"/>
        </g>
        <g transform="matrix(0.285183,0,0,0.266667,-5.00795,23.8951)">
            <path d="M654.431,339.495C681.895,340.78 736.825,343.35 770.934,365.223C827.083,401.228 834.785,466.724 838.636,499.472" style="fill:none;stroke:black;stroke-width:38.64px;"/>
        </g>
        <g transform="matrix(-0.292124,0,0,0.266667,275.067,25.3443)">
            <path d="M654.431,339.495C681.895,340.78 736.825,343.35 770.934,365.223C827.083,401.228 834.785,466.724 838.636,499.472" style="fill:none;stroke:black;stroke-width:38.14px;"/>
        </g>
    </g>
</svg>
